<svg xmlns="http://www.w3.org/2000/svg" xmlns:xlink="http://www.w3.org/1999/xlink" viewBox="0 0 512 512">
  <style>
    use:not(:target) {
      display: none;
    }
  </style>
  <defs>
    <path id="linkedin" d="
M 344.69 313.48 
C 130.97 129.31 130.97 129.31 130.97 129.31 
  120.47 129.31 112.22 137.56 112.22 148.06 
  112.22 148.06 112.22 360.56 112.22 360.56 
  112.22 371.06 120.47 379.31 130.97 379.31 
  130.97 379.31 343.47 379.31 343.47 379.31 
  353.97 379.31 362.22 371.06 362.22 360.56 
  362.22 360.56 362.22 148.06 362.22 148.06 
  362.22 137.56 353.97 129.31 343.47 129.31 
  343.47 129.31 130.97 129.31 130.97 129.31 
M 196.22 212.31 
C 196.22 212.31 196.22 326.56 196.22 326.56 
  196.22 326.56 164.97 326.56 164.97 326.56 
  164.97 326.56 164.97 212.31 164.97 212.31 
  164.97 212.31 196.22 212.31 196.22 212.31 
M 198.72 180.81 
C 198.72 180.81 198.72 180.81 198.72 180.81 
  198.72 191.06 190.47 199.31 180.47 199.31 
  170.47 199.31 162.47 191.06 162.47 180.81 
  162.47 170.81 170.47 162.56 180.47 162.56 
  190.47 162.56 198.72 170.81 198.72 180.81 
M 320.72 256.31 
C 320.72 256.31 320.72 326.56 320.72 326.56 
  320.72 326.56 289.47 326.56 289.47 326.56 
  289.47 326.56 289.47 268.31 289.47 268.31 
  289.47 233.31 247.97 236.06 247.97 268.31 
  247.97 268.31 247.97 326.56 247.97 326.56 
  247.97 326.56 216.97 326.56 216.97 326.56 

  216.97 326.56 216.97 212.31 216.97 212.31 

  216.97 212.31 247.97 212.31 247.97 212.31
  247.97 212.31 247.97 230.81 247.97 230.81
  262.47 203.81 320.72 201.81 320.72 256.31" />
    <path id="github" d="
M 205.24 404.64
c 0.0 -4.87 -0.18 -21.02 -0.29 -38.13
C 148.0 378.89 135.96 342.36 135.96 342.36
c -9.33 -23.65 -22.74 -29.95 -22.74 -29.95
  -18.62 -12.7 1.41 -12.45 1.41 -12.45
  20.56 1.42 31.38 21.1 31.38 21.1
  18.27 31.3 47.95 22.25 59.6 17.0
  1.86 -13.2 7.16 -22.25 13.0 -27.35
C 173.16 305.54 125.34 287.96 125.34 209.49
c 0.0 -22.38 7.98 -40.62 21.06 -54.96
  -2.09 -5.2 -9.14 -26.04 2.02 -54.22
  0.0 0.0 17.18 -5.5 56.33 21.0
  16.33 -4.56 33.84 -6.82 51.25 -6.89
  17.4 0.07 34.93 2.35 51.27 6.91
  39.07 -26.53 56.27 -21.0 56.27 -21.0
  11.2 28.22 4.15 49.02 2.05 54.2
  13.13 14.34 21.05 32.58 21.05 54.96
  0.0 78.67 -47.9 96.0 -93.53 101.07
  7.38 6.35 13.9 18.8 13.9 37.9
  0.0 27.38 -0.27 49.45 -0.27 56.2
  0.0 8.0 -101.5 8.0 -101.5 0.0" />
    <path id="medium" d="
M 184.4209 189.31
C 224.2965 189.31 256.6194 221.8585 256.6194 262.0064
  256.6194 302.1543 224.294 334.7004 184.4209 334.7004
  144.5478 334.7004 112.22 302.1543 112.22 262.0064
  112.22 221.8585 144.5453 189.31 184.4209 189.31
Z
M 299.7206 193.5684
C 319.6584 193.5684 335.8211 224.206 335.8211 262.0064 L 335.8235 262.0064
  335.8235 299.797 319.6609 330.4445 299.7231 330.4445
  279.7853 330.4445 263.6226 299.797 263.6226 262.0064
  263.6226 224.2159 279.7828 193.5684 299.7206 193.5684
Z
M 355.5234 200.6967
C 362.534 200.6967 368.22 228.1455 368.22 262.0064
  368.22 295.8575 362.5365 323.3161 355.5234 323.3161
  348.5103 323.3161 342.8292 295.8649 342.8292 262.0064
  342.8292 228.148 348.5128 200.6967 355.5234 200.6967
Z" />
  </defs>
  <use id="linkedinc" xlink:href="#linkedin" fill="#095DB8" />
  <use id="linkedinw" xlink:href="#linkedin" fill="#ffffff" />
  <use id="githubc" xlink:href="#github" fill="#808080" />
  <use id="githubw" xlink:href="#github" fill="#ffffff" />
  <use id="mediumc" xlink:href="#medium" fill="#000000" />
  <use id="mediumw" xlink:href="#medium" fill="#ffffff" />
</svg>
